<?xml version="1.0" encoding="UTF-8" standalone="no"?>
<!DOCTYPE svg  PUBLIC '-//W3C//DTD SVG 1.1//EN'  'http://www.w3.org/Graphics/SVG/1.1/DTD/svg11.dtd'>
<svg id="svg2852" xmlns="http://www.w3.org/2000/svg" xml:space="preserve" height="200" width="200" version="1.1" viewBox="-0.963 -0.369 194 192">
<polygon id="polygon2856" fill-rule="evenodd" transform="matrix(1.0096 0 0 1.0096 -.963 -.39066)" points="108.36 88.52 122.24 0 89.153 83.52 0 70.56 83.926 102.66 70.04 191.18 103.13 107.66 192.15 120.59" fill="#cc3389"/>
<path id="path2858" d="m83.77 103.26l-10.671-4.082-25.639 18.682c1.71 3.08 3.78 5.98 6.174 8.66l28.413-12.28 1.723-10.98zm-50.556 32.09c-1.128-1.55-2.192-3.14-3.188-4.78l-20.801 15.16 23.989-10.38zm81.186-25.41l-11.24-1.63-4.074 10.28 17.034 22.83c3.59-1.26 7.01-2.86 10.21-4.78l-11.93-26.7zm20.73 46.4c-1.87 1.03-3.79 1.99-5.74 2.87l17.48 23.42-11.74-26.29zm9.62-81.965c-1.72-3.07-3.8-5.97-6.21-8.647l-28.38 12.277-1.73 10.976 10.67 4.083 25.65-18.689zm38.23-27.864l-24 10.38c1.13 1.549 2.2 3.145 3.2 4.78l20.8-15.16zm-106.82 4.418c-3.587 1.268-7.013 2.874-10.22 4.791l11.865 26.578 11.245 1.634 4.072-10.278-16.962-22.725zm-30.752-41.198l11.737 26.289c2.967-1.602-0.997 0.518 1.983-1.06 5.617-2.762-1.9 0.865 3.759-1.814l-17.479-23.415z" fill-rule="evenodd" fill="#e2ccff"/>
<path id="path2860" d="m45.857 77.653c4.111-8.933 11.101-16.568 20.08-21.934 3.207-1.917 6.633-3.523 10.22-4.791 8.617-3.046 17.961-4.072 27.143-2.979l8.11-20.453c-37.821-7.187-75.442 13.04-87.39 46.981l21.837 3.176zm7.777 48.867c-2.394-2.68-4.463-5.58-6.174-8.66-5.222-9.38-6.917-20.021-4.832-30.338l-20.23-7.738c-9.411 36.186 13.392 72.856 51.947 83.556l3.355-21.39c-9.462-3.05-17.792-8.39-24.066-15.43zm27.127 38.32c37.899 7.25 75.619-13.03 87.529-47.07l-21.82-3.17c-4.11 8.98-11.12 16.65-20.14 22.04-3.2 1.92-6.62 3.52-10.2 4.78-8.66 3.06-18.045 4.09-27.268 2.97l-8.101 20.45zm89.129-52.34c9.37-36.194-13.47-72.851-52.05-83.504l-3.35 21.386c9.45 3.031 17.77 8.342 24.05 15.346 2.41 2.678 4.48 5.577 6.21 8.647 5.26 9.388 6.98 20.046 4.91 30.385l20.23 7.74z" fill-rule="evenodd" fill="#00c2ff"/>
</svg>
